<?xml version="1.0" encoding="UTF-8" standalone="no"?>
<!-- Created with Inkscape (http://www.inkscape.org/) -->

<svg
   width="793.70081"
   height="1122.5197"
   viewBox="0 0 210 297"
   version="1.1"
   id="svg5"
   inkscape:version="1.1 (c68e22c387, 2021-05-23)"
   sodipodi:docname="logo.svg"
   xmlns:inkscape="http://www.inkscape.org/namespaces/inkscape"
   xmlns:sodipodi="http://sodipodi.sourceforge.net/DTD/sodipodi-0.dtd"
   xmlns="http://www.w3.org/2000/svg"
   xmlns:svg="http://www.w3.org/2000/svg">
  <sodipodi:namedview
     id="namedview7"
     pagecolor="#1a1a1a"
     bordercolor="#ff0066"
     borderopacity="1"
     inkscape:pageshadow="0"
     inkscape:pageopacity="0"
     inkscape:pagecheckerboard="true"
     inkscape:document-units="px"
     showgrid="false"
     units="px"
     inkscape:showpageshadow="false"
     inkscape:zoom="0.47118629"
     inkscape:cx="869.08301"
     inkscape:cy="737.50023"
     inkscape:window-width="1920"
     inkscape:window-height="1017"
     inkscape:window-x="1912"
     inkscape:window-y="-8"
     inkscape:window-maximized="1"
     inkscape:current-layer="layer1" />
  <defs
     id="defs2">
    <filter
       inkscape:collect="always"
       style="color-interpolation-filters:sRGB"
       id="filter2789"
       x="-0.077237123"
       y="-0.11781812"
       width="1.1544742"
       height="1.2356362">
      <feGaussianBlur
         inkscape:collect="always"
         stdDeviation="12.015642"
         id="feGaussianBlur2791" />
    </filter>
    <filter
       inkscape:collect="always"
       style="color-interpolation-filters:sRGB"
       id="filter2797"
       x="-0.25474271"
       y="-0.38858656"
       width="1.5094854"
       height="1.7771731">
      <feGaussianBlur
         inkscape:collect="always"
         stdDeviation="39.629871"
         id="feGaussianBlur2795" />
    </filter>
  </defs>
  <g
     inkscape:label="Layer 1"
     inkscape:groupmode="layer"
     id="layer1">
    <path
       id="path2793"
       style="color:#000000;opacity:0.464744;fill:#ffc107;stroke-width:3.77953;-inkscape-stroke:none;filter:url(#filter2797)"
       d="m 348.53711,414.11914 c -5.99227,0.0333 -11.86996,0.84912 -17.37891,2.38281 -10.10191,2.81239 -19.0574,8.20189 -25.36328,15.82617 -5.43904,-2.27191 -11.95352,-2.36303 -18.89844,-1.58789 -9.72794,1.08575 -20.68693,4.2901 -31.29882,9.08008 -10.6119,4.78999 -20.84757,11.1525 -28.84766,18.91992 -6.55094,6.36042 -10.93755,14.05736 -12.95508,22.44141 -17.92009,0.81891 -34.37183,10.95562 -46.15234,23.79883 -11.62342,12.67196 -19.25385,27.51141 -17.87891,40.99805 -9.93029,7.89755 -16.9165,20.78942 -21.37695,34.68164 -4.91247,15.30005 -6.86276,31.48918 -3.49219,44.06836 4.4808,16.72255 11.53462,25.88001 19.16211,30.32617 7.6275,4.44612 15.34645,3.79297 17.87891,3.79297 33.93882,0 93.64657,-11.98565 154.6875,-29.09961 61.04093,-17.11393 122.8019,-39.27704 159.80468,-60.64063 7.5882,-4.38104 13.98245,-9.08014 17.48633,-16.36719 3.50389,-7.287 3.41693,-16.09357 0.48828,-27.02343 -3.4103,-12.7276 -9.81799,-22.49407 -19.47461,-30.24414 -6.69286,-27.63164 -36.02726,-48.68059 -71.44921,-51.7168 -12.37512,-19.72014 -32.71063,-28.97734 -52.36719,-29.60156 -0.85998,-0.0273 -1.71818,-0.0399 -2.57422,-0.0352 z m -0.0781,12.57227 c 0.68779,-0.006 1.37874,6.3e-4 2.07032,0.0195 16.59789,0.45339 34.05871,8.29021 43.88476,25.99023 l 1.69141,3.04102 3.47656,0.19336 c 33.02158,1.76315 59.22829,22.06833 63.61719,43.92968 l 0.1543,0.78125 c -0.037,0.0614 -0.0804,0.11637 -0.11524,0.17969 -0.13871,0.24 -13.50857,24.04322 -32.12305,23.98438 -0.41503,-0.002 -0.81883,0.0451 -1.20703,0.13086 -6.6441,-9.16838 -15.39555,-11.11653 -15.95508,-11.23438 -2.91065,-0.60529 -5.73566,1.25432 -6.3789,4.15235 -0.64774,2.92202 1.19997,5.81888 4.10351,6.48242 0.55707,0.14286 13.30564,3.32892 14.70508,23.77148 0.13947,2.95956 2.7852,5.25858 5.78516,5.0625 3.00083,-0.19616 5.26764,-2.78664 5.05859,-5.79492 -0.23546,-3.77851 -0.81445,-7.15853 -1.61718,-10.1543 -0.1629,-0.60805 -0.33624,-1.1996 -0.51758,-1.77734 18.92089,-2.26294 32.0103,-20.35039 36.21093,-26.95508 5.31592,5.31381 8.55864,11.55458 10.94922,20.47656 2.52254,9.41416 2.10718,14.60678 0.32422,18.31446 -1.7828,3.70771 -5.63494,6.99715 -12.43945,10.92578 -34.97987,20.1956 -96.48475,42.48081 -156.91602,59.42383 -49.26271,13.8117 -98.21312,24.12318 -131.35351,27.46484 -0.22063,-0.17906 -0.45321,-0.34759 -0.70703,-0.49414 -5.78381,-3.33929 -9.33551,-7.46785 -10.54493,-12.99024 -2.91163,-11.96023 5.62983,-25.49169 5.70704,-25.625 0.86654,-1.348 1.06453,-2.9206 0.68164,-4.34961 -0.33789,-1.261 -1.12854,-2.40344 -2.31446,-3.16796 -0.94462,-0.60862 -2.00773,-0.88689 -3.05273,-0.86524 -1.74168,0.0378 -3.43431,0.90632 -4.45508,2.48242 -0.45299,0.70742 -11.14821,17.50856 -7.16211,34.02539 1.03601,4.6535 3.06436,8.63444 6.00391,12.07813 -1.40664,0.0412 -2.78305,0.0684 -4.08789,0.0684 -3.83666,0 -7.3805,0.3429 -11.53711,-2.08008 -4.15662,-2.4229 -9.40316,-8.0011 -13.34571,-22.71484 -2.26202,-8.44199 -1.04821,-23.37327 3.31446,-36.96094 4.36266,-13.58767 11.97441,-25.83219 19.15625,-30.44336 l 0.91601,-0.58789 c 0.1739,-0.03 0.34764,-0.0427 0.52149,-0.0879 1.11278,-0.28762 26.89333,-6.67872 43.45508,16.38672 -4.61145,4.91421 -7.14761,11.01901 -8.07618,15.55664 -0.58957,2.92822 1.2874,5.81788 4.23243,6.42578 2.94234,0.59773 5.82703,-1.29235 6.42382,-4.23438 0.3899,-1.90745 4.30468,-18.41002 22.29102,-14.7246 2.94228,0.59773 5.82704,-1.29236 6.42383,-4.23438 0.17306,-0.8691 0.13702,-1.71587 -0.0742,-2.50391 -0.51531,-1.92325 -2.07242,-3.48875 -4.1582,-3.91992 -7.32822,-1.4996 -13.3359,-0.72372 -18.19141,1.35547 -12.48999,-17.41379 -30.29517,-22.09736 -43.5,-22.04297 -2.8404,0.0118 -5.43007,0.25904 -7.74609,0.62891 0.91798,-7.56319 6.09044,-19.01303 14.87304,-28.58789 11.08663,-12.08674 26.68128,-21.06482 41.13282,-20.19727 l 6.28124,0.37696 v -0.01 c 0.14058,0.005 0.28113,0.009 0.42383,0.004 0.3145,-0.004 29.68274,-0.80018 47.22461,21.49023 -5.6134,6.4605 -15.59552,21.04292 -10.76562,39.06836 0.77721,2.90056 3.76342,4.62289 6.66406,3.8457 2.91169,-0.78017 4.62488,-3.76339 3.84766,-6.66406 -4.66949,-17.42676 10.78226,-31.5573 10.93554,-31.69922 l 3.50977,-3.13867 -2.59375,-3.91016 c -18.69079,-28.3205 -51.4298,-29.86693 -58.01953,-29.88086 1.51201,-5.01058 4.93536,-10.11875 9.96484,-15.00195 6.58502,-6.39352 15.7199,-12.17828 25.25977,-16.48437 9.53986,-4.3061 19.51655,-7.14386 27.51953,-8.03711 8.00297,-0.89322 13.54701,0.77247 14.67578,1.88086 l 5.25391,5.15234 c 0.41578,0.49834 0.92227,0.93554 1.52148,1.27539 0.17605,0.11036 18.63365,10.59725 23.57617,29.04297 l 2.2793,8.50195 6.58984,-5.8418 c 1.44877,-1.27732 14.48118,-12.12639 26.66602,1.60743 1.99808,2.24677 5.4322,2.44096 7.68164,0.45312 1.58029,-1.41452 2.15596,-3.55132 1.64062,-5.47461 -0.21127,-0.78792 -0.60213,-1.53924 -1.1875,-2.20508 -12.24891,-13.80684 -26.38172,-11.72073 -35.63867,-6.875 -8.10247,-18.46631 -25.51781,-28.2659 -26.33789,-28.72265 -0.26307,-0.14655 -0.53436,-0.25889 -0.80859,-0.35742 4.29689,-5.95401 11.52228,-10.61681 20.32812,-13.06836 4.39803,-1.22442 9.10539,-1.88673 13.91992,-1.93164 z m 7.9004,9.43164 c -4.70855,-0.0444 -9.40742,1.62644 -13.4336,4.59765 a 5.2582677,5.2582677 0 0 0 -1.10742,7.35352 5.2582677,5.2582677 0 0 0 7.35156,1.10547 c 3.15488,-2.3283 6.15915,-2.93947 8.85156,-2.33985 2.69242,0.59963 5.45932,2.46167 7.84766,6.79883 a 5.2582677,5.2582677 0 0 0 7.14453,2.07422 5.2582677,5.2582677 0 0 0 2.06836,-7.14453 c -3.51939,-6.39111 -8.81254,-10.66729 -14.7793,-11.99609 -1.30522,-0.29069 -2.62496,-0.4368 -3.94335,-0.44922 z m -73.2129,16.55664 c -0.82907,2.3e-4 -1.64624,0.0412 -2.44921,0.125 -3.21188,0.33524 -6.19212,1.33482 -8.77149,2.97461 -5.15875,3.27953 -8.40463,8.88926 -9.35937,15.22265 a 5.2582677,5.2582677 0 0 0 4.41406,5.98633 5.2582677,5.2582677 0 0 0 5.98633,-4.41406 c 0.58447,-3.87719 2.27178,-6.43423 4.59961,-7.91406 2.32782,-1.47988 5.60763,-2.12411 10.36328,-0.7461 a 5.2582677,5.2582677 0 0 0 6.51172,-3.58594 5.2582677,5.2582677 0 0 0 -3.58789,-6.51171 c -2.62793,-0.7615 -5.2198,-1.13741 -7.70704,-1.13672 z m 130.0625,22.19531 c -2.49482,-0.004 -4.97659,0.36583 -7.33789,1.02734 a 5.2582677,5.2582677 0 0 0 -3.63867,6.48243 5.2582677,5.2582677 0 0 0 6.48047,3.63867 c 3.38986,-0.9495 6.88703,-0.80526 9.5293,0.42773 2.64223,1.233 4.77627,3.35209 5.95117,8.05469 a 5.2582677,5.2582677 0 0 0 6.37695,3.82422 5.2582677,5.2582677 0 0 0 3.82422,-6.3711 c -1.81258,-7.25495 -6.28459,-12.51042 -11.69922,-15.0371 -2.70731,-1.26335 -5.56323,-1.89403 -8.41601,-2.02344 -0.35661,-0.0162 -0.71391,-0.0229 -1.07032,-0.0234 z m -202.33203,27.15234 a 5.3359748,5.3359748 0 0 0 -1.27539,0.1543 c -7.1889,1.77113 -12.77294,5.8324 -15.64258,11.33203 -2.86963,5.49959 -2.86858,12.07267 -0.49414,18.12305 a 5.3359748,5.3359748 0 0 0 6.91602,3.01953 5.3359748,5.3359748 0 0 0 3.01172,-6.91797 c -1.45359,-3.70394 -1.26555,-6.80352 0.0293,-9.28516 1.29489,-2.48163 3.85586,-4.71213 8.73437,-5.91406 a 5.3359748,5.3359748 0 0 0 3.9043,-6.45898 5.3359748,5.3359748 0 0 0 -5.1836,-4.05274 z m 127.09961,7.46485 c -1.04782,0.004 -2.10628,0.31099 -3.03906,0.94531 -0.31249,0.21921 -31.09113,21.89489 -7.20117,64.93555 1.47172,2.63633 4.7744,3.57578 7.40234,2.11718 2.6205,-1.4457 3.52233,-4.76265 2.11914,-7.39453 -18.95119,-34.06809 2.89728,-50.0261 3.83594,-50.68359 1.93839,-1.34211 2.74425,-3.71947 2.16406,-5.88477 -0.15469,-0.57732 -0.40586,-1.13017 -0.75976,-1.65625 -1.05761,-1.55444 -2.77512,-2.38665 -4.52149,-2.3789 z m -96.05078,87.48828 a 5.2582677,5.2582677 0 0 0 -0.63476,0.0234 c -10.84512,1.04855 -21.52231,6.32079 -25.91016,15.98047 a 5.2582677,5.2582677 0 0 0 2.61328,6.96093 5.2582677,5.2582677 0 0 0 6.96094,-2.61328 c 2.09922,-4.62134 9.45604,-9.09832 17.34765,-9.86133 a 5.2582677,5.2582677 0 0 0 4.72461,-5.73632 5.2582677,5.2582677 0 0 0 -5.10156,-4.75391 z"
       transform="matrix(0.29166144,-0.03538607,0.03538607,0.29166144,-27.375877,-3.5615749)" />
    <rect
       style="fill:#1a237e;stroke-width:10.0111"
       id="rect28"
       width="264.58334"
       height="264.58334"
       x="24.874056"
       y="79.014702"
       inkscape:export-filename="D:\Google Drive\Raw Material\Logo\logo.png"
       inkscape:export-xdpi="96"
       inkscape:export-ydpi="96" />
    <path
       id="path1890"
       style="color:#000000;fill:#ffc107;stroke-width:3.77953;-inkscape-stroke:none;filter:url(#filter2789)"
       d="m 348.53711,414.11914 c -5.99227,0.0333 -11.86996,0.84912 -17.37891,2.38281 -10.10191,2.81239 -19.0574,8.20189 -25.36328,15.82617 -5.43904,-2.27191 -11.95352,-2.36303 -18.89844,-1.58789 -9.72794,1.08575 -20.68693,4.2901 -31.29882,9.08008 -10.6119,4.78999 -20.84757,11.1525 -28.84766,18.91992 -6.55094,6.36042 -10.93755,14.05736 -12.95508,22.44141 -17.92009,0.81891 -34.37183,10.95562 -46.15234,23.79883 -11.62342,12.67196 -19.25385,27.51141 -17.87891,40.99805 -9.93029,7.89755 -16.9165,20.78942 -21.37695,34.68164 -4.91247,15.30005 -6.86276,31.48918 -3.49219,44.06836 4.4808,16.72255 11.53462,25.88001 19.16211,30.32617 7.6275,4.44612 15.34645,3.79297 17.87891,3.79297 33.93882,0 93.64657,-11.98565 154.6875,-29.09961 61.04093,-17.11393 122.8019,-39.27704 159.80468,-60.64063 7.5882,-4.38104 13.98245,-9.08014 17.48633,-16.36719 3.50389,-7.287 3.41693,-16.09357 0.48828,-27.02343 -3.4103,-12.7276 -9.81799,-22.49407 -19.47461,-30.24414 -6.69286,-27.63164 -36.02726,-48.68059 -71.44921,-51.7168 -12.37512,-19.72014 -32.71063,-28.97734 -52.36719,-29.60156 -0.85998,-0.0273 -1.71818,-0.0399 -2.57422,-0.0352 z m -0.0781,12.57227 c 0.68779,-0.006 1.37874,6.3e-4 2.07032,0.0195 16.59789,0.45339 34.05871,8.29021 43.88476,25.99023 l 1.69141,3.04102 3.47656,0.19336 c 33.02158,1.76315 59.22829,22.06833 63.61719,43.92968 l 0.1543,0.78125 c -0.037,0.0614 -0.0804,0.11637 -0.11524,0.17969 -0.13871,0.24 -13.50857,24.04322 -32.12305,23.98438 -0.41503,-0.002 -0.81883,0.0451 -1.20703,0.13086 -6.6441,-9.16838 -15.39555,-11.11653 -15.95508,-11.23438 -2.91065,-0.60529 -5.73566,1.25432 -6.3789,4.15235 -0.64774,2.92202 1.19997,5.81888 4.10351,6.48242 0.55707,0.14286 13.30564,3.32892 14.70508,23.77148 0.13947,2.95956 2.7852,5.25858 5.78516,5.0625 3.00083,-0.19616 5.26764,-2.78664 5.05859,-5.79492 -0.23546,-3.77851 -0.81445,-7.15853 -1.61718,-10.1543 -0.1629,-0.60805 -0.33624,-1.1996 -0.51758,-1.77734 18.92089,-2.26294 32.0103,-20.35039 36.21093,-26.95508 5.31592,5.31381 8.55864,11.55458 10.94922,20.47656 2.52254,9.41416 2.10718,14.60678 0.32422,18.31446 -1.7828,3.70771 -5.63494,6.99715 -12.43945,10.92578 -34.97987,20.1956 -96.48475,42.48081 -156.91602,59.42383 -49.26271,13.8117 -98.21312,24.12318 -131.35351,27.46484 -0.22063,-0.17906 -0.45321,-0.34759 -0.70703,-0.49414 -5.78381,-3.33929 -9.33551,-7.46785 -10.54493,-12.99024 -2.91163,-11.96023 5.62983,-25.49169 5.70704,-25.625 0.86654,-1.348 1.06453,-2.9206 0.68164,-4.34961 -0.33789,-1.261 -1.12854,-2.40344 -2.31446,-3.16796 -0.94462,-0.60862 -2.00773,-0.88689 -3.05273,-0.86524 -1.74168,0.0378 -3.43431,0.90632 -4.45508,2.48242 -0.45299,0.70742 -11.14821,17.50856 -7.16211,34.02539 1.03601,4.6535 3.06436,8.63444 6.00391,12.07813 -1.40664,0.0412 -2.78305,0.0684 -4.08789,0.0684 -3.83666,0 -7.3805,0.3429 -11.53711,-2.08008 -4.15662,-2.4229 -9.40316,-8.0011 -13.34571,-22.71484 -2.26202,-8.44199 -1.04821,-23.37327 3.31446,-36.96094 4.36266,-13.58767 11.97441,-25.83219 19.15625,-30.44336 l 0.91601,-0.58789 c 0.1739,-0.03 0.34764,-0.0427 0.52149,-0.0879 1.11278,-0.28762 26.89333,-6.67872 43.45508,16.38672 -4.61145,4.91421 -7.14761,11.01901 -8.07618,15.55664 -0.58957,2.92822 1.2874,5.81788 4.23243,6.42578 2.94234,0.59773 5.82703,-1.29235 6.42382,-4.23438 0.3899,-1.90745 4.30468,-18.41002 22.29102,-14.7246 2.94228,0.59773 5.82704,-1.29236 6.42383,-4.23438 0.17306,-0.8691 0.13702,-1.71587 -0.0742,-2.50391 -0.51531,-1.92325 -2.07242,-3.48875 -4.1582,-3.91992 -7.32822,-1.4996 -13.3359,-0.72372 -18.19141,1.35547 -12.48999,-17.41379 -30.29517,-22.09736 -43.5,-22.04297 -2.8404,0.0118 -5.43007,0.25904 -7.74609,0.62891 0.91798,-7.56319 6.09044,-19.01303 14.87304,-28.58789 11.08663,-12.08674 26.68128,-21.06482 41.13282,-20.19727 l 6.28124,0.37696 v -0.01 c 0.14058,0.005 0.28113,0.009 0.42383,0.004 0.3145,-0.004 29.68274,-0.80018 47.22461,21.49023 -5.6134,6.4605 -15.59552,21.04292 -10.76562,39.06836 0.77721,2.90056 3.76342,4.62289 6.66406,3.8457 2.91169,-0.78017 4.62488,-3.76339 3.84766,-6.66406 -4.66949,-17.42676 10.78226,-31.5573 10.93554,-31.69922 l 3.50977,-3.13867 -2.59375,-3.91016 c -18.69079,-28.3205 -51.4298,-29.86693 -58.01953,-29.88086 1.51201,-5.01058 4.93536,-10.11875 9.96484,-15.00195 6.58502,-6.39352 15.7199,-12.17828 25.25977,-16.48437 9.53986,-4.3061 19.51655,-7.14386 27.51953,-8.03711 8.00297,-0.89322 13.54701,0.77247 14.67578,1.88086 l 5.25391,5.15234 c 0.41578,0.49834 0.92227,0.93554 1.52148,1.27539 0.17605,0.11036 18.63365,10.59725 23.57617,29.04297 l 2.2793,8.50195 6.58984,-5.8418 c 1.44877,-1.27732 14.48118,-12.12639 26.66602,1.60743 1.99808,2.24677 5.4322,2.44096 7.68164,0.45312 1.58029,-1.41452 2.15596,-3.55132 1.64062,-5.47461 -0.21127,-0.78792 -0.60213,-1.53924 -1.1875,-2.20508 -12.24891,-13.80684 -26.38172,-11.72073 -35.63867,-6.875 -8.10247,-18.46631 -25.51781,-28.2659 -26.33789,-28.72265 -0.26307,-0.14655 -0.53436,-0.25889 -0.80859,-0.35742 4.29689,-5.95401 11.52228,-10.61681 20.32812,-13.06836 4.39803,-1.22442 9.10539,-1.88673 13.91992,-1.93164 z m 7.9004,9.43164 c -4.70855,-0.0444 -9.40742,1.62644 -13.4336,4.59765 a 5.2582677,5.2582677 0 0 0 -1.10742,7.35352 5.2582677,5.2582677 0 0 0 7.35156,1.10547 c 3.15488,-2.3283 6.15915,-2.93947 8.85156,-2.33985 2.69242,0.59963 5.45932,2.46167 7.84766,6.79883 a 5.2582677,5.2582677 0 0 0 7.14453,2.07422 5.2582677,5.2582677 0 0 0 2.06836,-7.14453 c -3.51939,-6.39111 -8.81254,-10.66729 -14.7793,-11.99609 -1.30522,-0.29069 -2.62496,-0.4368 -3.94335,-0.44922 z m -73.2129,16.55664 c -0.82907,2.3e-4 -1.64624,0.0412 -2.44921,0.125 -3.21188,0.33524 -6.19212,1.33482 -8.77149,2.97461 -5.15875,3.27953 -8.40463,8.88926 -9.35937,15.22265 a 5.2582677,5.2582677 0 0 0 4.41406,5.98633 5.2582677,5.2582677 0 0 0 5.98633,-4.41406 c 0.58447,-3.87719 2.27178,-6.43423 4.59961,-7.91406 2.32782,-1.47988 5.60763,-2.12411 10.36328,-0.7461 a 5.2582677,5.2582677 0 0 0 6.51172,-3.58594 5.2582677,5.2582677 0 0 0 -3.58789,-6.51171 c -2.62793,-0.7615 -5.2198,-1.13741 -7.70704,-1.13672 z m 130.0625,22.19531 c -2.49482,-0.004 -4.97659,0.36583 -7.33789,1.02734 a 5.2582677,5.2582677 0 0 0 -3.63867,6.48243 5.2582677,5.2582677 0 0 0 6.48047,3.63867 c 3.38986,-0.9495 6.88703,-0.80526 9.5293,0.42773 2.64223,1.233 4.77627,3.35209 5.95117,8.05469 a 5.2582677,5.2582677 0 0 0 6.37695,3.82422 5.2582677,5.2582677 0 0 0 3.82422,-6.3711 c -1.81258,-7.25495 -6.28459,-12.51042 -11.69922,-15.0371 -2.70731,-1.26335 -5.56323,-1.89403 -8.41601,-2.02344 -0.35661,-0.0162 -0.71391,-0.0229 -1.07032,-0.0234 z m -202.33203,27.15234 a 5.3359748,5.3359748 0 0 0 -1.27539,0.1543 c -7.1889,1.77113 -12.77294,5.8324 -15.64258,11.33203 -2.86963,5.49959 -2.86858,12.07267 -0.49414,18.12305 a 5.3359748,5.3359748 0 0 0 6.91602,3.01953 5.3359748,5.3359748 0 0 0 3.01172,-6.91797 c -1.45359,-3.70394 -1.26555,-6.80352 0.0293,-9.28516 1.29489,-2.48163 3.85586,-4.71213 8.73437,-5.91406 a 5.3359748,5.3359748 0 0 0 3.9043,-6.45898 5.3359748,5.3359748 0 0 0 -5.1836,-4.05274 z m 127.09961,7.46485 c -1.04782,0.004 -2.10628,0.31099 -3.03906,0.94531 -0.31249,0.21921 -31.09113,21.89489 -7.20117,64.93555 1.47172,2.63633 4.7744,3.57578 7.40234,2.11718 2.6205,-1.4457 3.52233,-4.76265 2.11914,-7.39453 -18.95119,-34.06809 2.89728,-50.0261 3.83594,-50.68359 1.93839,-1.34211 2.74425,-3.71947 2.16406,-5.88477 -0.15469,-0.57732 -0.40586,-1.13017 -0.75976,-1.65625 -1.05761,-1.55444 -2.77512,-2.38665 -4.52149,-2.3789 z m -96.05078,87.48828 a 5.2582677,5.2582677 0 0 0 -0.63476,0.0234 c -10.84512,1.04855 -21.52231,6.32079 -25.91016,15.98047 a 5.2582677,5.2582677 0 0 0 2.61328,6.96093 5.2582677,5.2582677 0 0 0 6.96094,-2.61328 c 2.09922,-4.62134 9.45604,-9.09832 17.34765,-9.86133 a 5.2582677,5.2582677 0 0 0 4.72461,-5.73632 5.2582677,5.2582677 0 0 0 -5.10156,-4.75391 z"
       transform="matrix(0.61309451,-0.07438421,0.07438421,0.61309451,-72.735215,-94.566904)" />
    <path
       id="path1035"
       style="color:#000000;fill:#ffc107;stroke-width:2.33421;-inkscape-stroke:none"
       d="m 171.7549,133.40159 c -3.67135,0.46613 -7.21425,1.40353 -10.47767,2.75361 -5.98423,2.47568 -11.0739,6.4461 -14.37287,11.58957 -3.50364,-0.98832 -7.50441,-0.5596 -11.70464,0.43223 -5.88339,1.38926 -12.36393,4.169 -18.51373,7.89508 -6.14979,3.72607 -11.95195,8.38827 -16.27899,13.74552 -3.543234,4.38682 -5.660111,9.43205 -6.273406,14.72235 -10.925794,1.83502 -20.258253,9.27354 -26.525487,18.02395 -6.183663,8.63369 -9.758016,18.29925 -7.911855,26.46558 -5.500752,5.58059 -8.825007,14.00418 -10.526324,22.85323 -1.873726,9.74579 -1.865223,19.81631 1.13695,27.27784 3.991047,9.91919 8.996874,15.00888 14.003971,17.16742 5.007099,2.15854 9.690961,1.18393 11.243599,0.99554 20.807704,-2.52451 56.522652,-14.31415 92.673502,-29.3471 36.15086,-15.03293 72.36757,-33.21505 93.46465,-49.0654 4.32643,-3.25042 7.89717,-6.60703 9.50332,-11.33534 1.6062,-4.72824 0.8978,-10.12103 -1.71075,-16.60423 -3.03756,-7.54955 -7.69257,-13.06068 -14.18946,-17.09392 -6.15872,-16.44296 -25.70918,-27.16592 -47.65204,-26.39257 -9.05398,-11.1698 -22.21016,-15.33271 -34.30792,-14.25325 -0.52928,0.0471 -1.05637,0.10342 -1.58085,0.16985 z m 0.88728,7.71382 c 0.4212,-0.0551 0.84534,-0.10216 1.27075,-0.14189 10.2098,-0.95666 21.49788,2.54925 28.83877,12.67013 l 1.2632,1.73861 2.14584,-0.14 c 20.37651,-1.37532 37.95407,9.12432 42.27102,22.20091 l 0.15261,0.46752 c -0.0189,0.0404 -0.0406,0.0774 -0.0572,0.11877 -0.0673,0.15766 -6.49359,15.74558 -17.91043,17.09415 -0.25458,0.0296 -0.49865,0.0885 -0.73026,0.16984 -4.75544,-5.12686 -10.26584,-5.67028 -10.61765,-5.70093 -1.82952,-0.1545 -3.42321,1.19566 -3.60201,3.02028 -0.17973,1.83965 1.16853,3.47826 2.99807,3.66909 0.35216,0.0462 8.40521,1.05123 10.78382,13.48036 0.30562,1.80409 2.09873,3.0168 3.92339,2.67344 1.82522,-0.34348 3.02228,-2.10029 2.67036,-3.92911 -0.42542,-2.29906 -1.03181,-4.32826 -1.74681,-6.10523 -0.14525,-0.3607 -0.29538,-0.71046 -0.44953,-1.05119 11.43197,-2.79481 18.11159,-14.85776 20.19568,-19.21955 3.65443,2.86246 6.10674,6.44745 8.23603,11.73963 2.24683,5.58413 2.37844,8.7986 1.56109,11.20436 -0.81722,2.40581 -2.93427,4.70909 -6.81386,7.62385 -19.94372,14.98377 -55.99434,33.2217 -91.78413,48.1045 -29.17533,12.13224 -58.41954,22.09532 -78.489167,26.60919 -0.148596,-0.0933 -0.303715,-0.17952 -0.470233,-0.25038 -3.794411,-1.61708 -6.279039,-3.88409 -7.431307,-7.17987 -2.674757,-7.11616 1.555439,-16.04758 1.592861,-16.13507 0.431001,-0.89088 0.435409,-1.86978 0.09436,-2.7174 -0.300957,-0.748 -0.87068,-1.3896 -1.65463,-1.77011 -0.624412,-0.30287 -1.296897,-0.3944 -1.93597,-0.30342 -1.065003,0.15261 -2.038142,0.81115 -2.546733,1.85336 -0.225109,0.4674 -5.532546,11.56365 -1.860097,21.39352 0.981318,2.77598 2.521009,5.06582 4.579385,6.95844 -0.859333,0.12991 -1.701189,0.24893 -2.501176,0.346 -2.352238,0.28538 -4.499439,0.75923 -7.228066,-0.41711 -2.728625,-1.17628 -6.36018,-4.20598 -9.871808,-12.93363 -2.014781,-5.00749 -2.381252,-14.25206 -0.717232,-22.9071 1.664014,-8.65503 5.419938,-16.72828 9.480085,-20.08959 l 0.517872,-0.42855 c 0.104389,-0.0313 0.209955,-0.0521 0.313184,-0.0927 0.660846,-0.2591 15.991362,-6.09512 27.860985,6.81424 -2.461714,3.35588 -3.562521,7.28735 -3.794294,10.13842 -0.143635,1.83914 1.222057,3.47115 3.072857,3.62479 1.848393,0.14757 3.47639,-1.22578 3.623439,-3.0739 0.09718,-1.19844 1.269759,-11.60729 12.571225,-10.68568 1.84836,0.14757 3.47639,-1.22576 3.62344,-3.0739 0.0415,-0.54572 -0.0436,-1.06218 -0.23176,-1.52962 -0.45899,-1.14078 -1.5301,-1.98476 -2.84095,-2.09398 -4.60444,-0.3743 -8.23,0.54828 -11.052228,2.1842 -8.952855,-9.74724 -20.217498,-11.29431 -28.309261,-10.27871 -1.740557,0.21847 -3.309876,0.56273 -4.702304,0.96176 2.27e-4,-4.70524 2.319748,-12.1098 6.992091,-18.63339 5.898089,-8.23499 14.791256,-14.89941 23.715947,-15.44248 l 3.879035,-0.2361 -7.2e-4,-0.006 c 0.0866,-0.006 0.17306,-0.0168 0.26013,-0.0292 0.19253,-0.0256 18.13881,-2.6985 30.55169,9.66278 -2.96099,4.37846 -7.99627,14.06136 -3.69428,24.75338 0.69226,1.72053 2.65121,2.55433 4.37176,1.8621 1.72711,-0.69493 2.55555,-2.65133 1.86328,-4.37192 -4.15911,-10.33692 4.26318,-20.14964 4.3466,-20.24804 l 1.91835,-2.18538 -1.88107,-2.20436 c -13.56582,-15.97283 -33.75295,-14.4857 -37.79412,-14.00405 0.5543,-3.18444 2.27317,-6.57088 4.99348,-9.93885 3.56167,-4.40965 8.73191,-8.63575 14.26045,-11.9854 5.52853,-3.34966 11.4341,-5.83158 16.27424,-6.97452 4.84014,-1.14292 8.36306,-0.5341 9.13755,0.0616 l 3.60439,2.76805 c 0.29198,0.2746 0.63503,0.50498 1.02768,0.66878 0.11617,0.0547 12.21246,5.11105 16.61476,16.0524 l 2.02984,5.04294 3.60566,-4.07176 c 0.79322,-0.89086 7.97632,-8.51179 16.46836,-0.99801 1.39213,1.22883 3.51202,1.09245 4.74327,-0.29359 0.86366,-0.98478 1.05766,-2.33768 0.59863,-3.4785 -0.18814,-0.46735 -0.48366,-0.89891 -0.89207,-1.2636 -8.53675,-7.55377 -17.04633,-5.22351 -22.36127,-1.56405 -6.34118,-10.7189 -17.74736,-15.43157 -18.28412,-15.65058 -0.1722,-0.0702 -0.34687,-0.11898 -0.52233,-0.15892 2.19151,-3.97 6.27452,-7.3662 11.49098,-9.52423 2.60533,-1.07784 5.44212,-1.83404 8.39054,-2.21971 z m 5.54525,5.19482 c -2.89008,0.32304 -5.64665,1.69692 -7.89407,3.81804 a 3.2474556,3.2474556 0 0 0 -0.13197,4.59079 3.2474556,3.2474556 0 0 0 4.58943,0.13096 c 1.76106,-1.66214 3.5575,-2.2603 5.2528,-2.09296 1.69531,0.16733 3.53019,1.10315 5.31708,3.58459 a 3.2474556,3.2474556 0 0 0 4.53456,0.74027 3.2474556,3.2474556 0 0 0 0.73666,-4.53414 c -2.63311,-3.65658 -6.19639,-5.88455 -9.95342,-6.2554 -0.82185,-0.0811 -1.64184,-0.0725 -2.45107,0.0189 z m -43.65487,15.59666 c -0.50828,0.0618 -1.00624,0.14778 -1.4923,0.25881 -1.94425,0.44446 -3.69706,1.27899 -5.15649,2.47621 -2.91885,2.39437 -4.49161,6.07512 -4.60585,10.02908 a 3.2474556,3.2474556 0 0 0 3.15152,3.34186 3.2474556,3.2474556 0 0 0 3.34185,-3.15151 c 0.0699,-2.42059 0.91421,-4.11379 2.23132,-5.19421 1.31709,-1.08045 3.28,-1.71939 6.29817,-1.22831 a 3.2474556,3.2474556 0 0 0 3.72556,-2.68288 3.2474556,3.2474556 0 0 0 -2.68408,-3.7254 c -1.66782,-0.2714 -3.28484,-0.30907 -4.8097,-0.1236 z m 81.39157,3.93322 c -1.52985,0.18309 -3.02388,0.59447 -4.42239,1.17569 a 3.2474556,3.2474556 0 0 0 -1.74866,4.245 3.2474556,3.2474556 0 0 0 4.2438,1.74882 c 2.00769,-0.83429 4.16251,-1.00601 5.87417,-0.44661 1.71167,0.55941 3.17766,1.69987 4.24779,4.49563 a 3.2474556,3.2474556 0 0 0 4.19412,1.87024 3.2474556,3.2474556 0 0 0 1.8707,-4.19054 c -1.65093,-4.31314 -4.78361,-7.20259 -8.29124,-8.34892 -1.75382,-0.57317 -3.55166,-0.74741 -5.31032,-0.61454 -0.21988,0.0168 -0.4394,0.0393 -0.65797,0.0652 z M 93.895193,197.53738 a 3.2954468,3.2954468 0 0 0 -0.770455,0.1896 c -4.275732,1.62062 -7.397182,4.52592 -8.747457,8.11118 -1.35027,3.58522 -0.860695,7.61504 1.045115,11.14788 a 3.2954468,3.2954468 0 0 0 4.464777,1.33683 3.2954468,3.2954468 0 0 0 1.331884,-4.4654 c -1.166702,-2.16274 -1.281978,-4.07706 -0.672706,-5.69486 0.609295,-1.6178 2.013499,-3.17579 4.915082,-4.27558 a 3.2954468,3.2954468 0 0 0 1.913257,-4.25037 3.2954468,3.2954468 0 0 0 -3.479497,-2.09914 z m 78.479337,-4.87753 c -0.64213,0.0803 -1.26821,0.34732 -1.79291,0.80562 -0.17527,0.15765 -17.43317,15.73631 0.41518,40.34726 1.09841,1.50686 3.19314,1.83716 4.69582,0.74742 1.49908,-1.08127 1.80526,-3.18196 0.7492,-4.69118 -14.153,-19.47729 -1.94485,-30.88623 -1.41827,-31.35915 1.08859,-0.96702 1.40581,-2.48451 0.88904,-3.7689 -0.13779,-0.34245 -0.3329,-0.6627 -0.589,-0.95892 -0.76404,-0.87434 -1.87894,-1.25681 -2.94906,-1.12215 z m -52.38046,60.78323 a 3.2474556,3.2474556 0 0 0 -0.38742,0.0616 c -6.57109,1.44955 -12.72504,5.47614 -14.69668,11.72481 a 3.2474556,3.2474556 0 0 0 2.11997,4.07332 3.2474556,3.2474556 0 0 0 4.07333,-2.11997 c 0.94326,-2.98944 5.12067,-6.28148 9.90222,-7.3363 a 3.2474556,3.2474556 0 0 0 2.46994,-3.86835 3.2474556,3.2474556 0 0 0 -3.48136,-2.53512 z" />
  </g>
</svg>
